<mxfile host="app.diagrams.net" modified="2023-05-21T20:41:47.056Z" agent="Mozilla/5.0 (Windows NT 10.0; Win64; x64) AppleWebKit/537.36 (KHTML, like Gecko) Chrome/113.0.0.0 Safari/537.36" etag="jh49YjqmogxIfg5DQO_G" version="21.3.2" type="device">
  <diagram name="Page-1" id="2YBvvXClWsGukQMizWep">
    <mxGraphModel dx="2505" dy="931" grid="1" gridSize="10" guides="1" tooltips="1" connect="1" arrows="1" fold="1" page="1" pageScale="1" pageWidth="850" pageHeight="1100" math="0" shadow="0">
      <root>
        <mxCell id="0" />
        <mxCell id="1" parent="0" />
        <mxCell id="aM9ryv3xv72pqoxQDRHE-1" value="p:PopUpButton" style="shape=umlLifeline;perimeter=lifelinePerimeter;whiteSpace=wrap;html=1;container=0;dropTarget=0;collapsible=0;recursiveResize=0;outlineConnect=0;portConstraint=eastwest;newEdgeStyle={&quot;edgeStyle&quot;:&quot;elbowEdgeStyle&quot;,&quot;elbow&quot;:&quot;vertical&quot;,&quot;curved&quot;:0,&quot;rounded&quot;:0};" parent="1" vertex="1">
          <mxGeometry x="90" y="50" width="100" height="720" as="geometry" />
        </mxCell>
        <mxCell id="aM9ryv3xv72pqoxQDRHE-2" value="" style="html=1;points=[];perimeter=orthogonalPerimeter;outlineConnect=0;targetShapes=umlLifeline;portConstraint=eastwest;newEdgeStyle={&quot;edgeStyle&quot;:&quot;elbowEdgeStyle&quot;,&quot;elbow&quot;:&quot;vertical&quot;,&quot;curved&quot;:0,&quot;rounded&quot;:0};" parent="aM9ryv3xv72pqoxQDRHE-1" vertex="1">
          <mxGeometry x="45" y="70" width="10" height="640" as="geometry" />
        </mxCell>
        <mxCell id="aM9ryv3xv72pqoxQDRHE-3" value="ClickAction()" style="html=1;verticalAlign=bottom;startArrow=oval;endArrow=block;startSize=8;edgeStyle=elbowEdgeStyle;elbow=vertical;curved=0;rounded=0;" parent="aM9ryv3xv72pqoxQDRHE-1" target="aM9ryv3xv72pqoxQDRHE-2" edge="1">
          <mxGeometry relative="1" as="geometry">
            <mxPoint x="-70" y="70" as="sourcePoint" />
            <Array as="points">
              <mxPoint x="-70" y="70" />
            </Array>
          </mxGeometry>
        </mxCell>
        <mxCell id="aM9ryv3xv72pqoxQDRHE-5" value="c:Controller" style="shape=umlLifeline;perimeter=lifelinePerimeter;whiteSpace=wrap;html=1;container=0;dropTarget=0;collapsible=0;recursiveResize=0;outlineConnect=0;portConstraint=eastwest;newEdgeStyle={&quot;edgeStyle&quot;:&quot;elbowEdgeStyle&quot;,&quot;elbow&quot;:&quot;vertical&quot;,&quot;curved&quot;:0,&quot;rounded&quot;:0};" parent="1" vertex="1">
          <mxGeometry x="480" y="50" width="100" height="680" as="geometry" />
        </mxCell>
        <mxCell id="aM9ryv3xv72pqoxQDRHE-6" value="" style="html=1;points=[];perimeter=orthogonalPerimeter;outlineConnect=0;targetShapes=umlLifeline;portConstraint=eastwest;newEdgeStyle={&quot;edgeStyle&quot;:&quot;elbowEdgeStyle&quot;,&quot;elbow&quot;:&quot;vertical&quot;,&quot;curved&quot;:0,&quot;rounded&quot;:0};" parent="aM9ryv3xv72pqoxQDRHE-5" vertex="1">
          <mxGeometry x="45" y="100" width="10" height="550" as="geometry" />
        </mxCell>
        <mxCell id="aM9ryv3xv72pqoxQDRHE-7" value="pierce(&quot;s&quot;)" style="html=1;verticalAlign=bottom;endArrow=block;edgeStyle=elbowEdgeStyle;elbow=vertical;curved=0;rounded=0;" parent="1" source="aM9ryv3xv72pqoxQDRHE-2" target="aM9ryv3xv72pqoxQDRHE-6" edge="1">
          <mxGeometry relative="1" as="geometry">
            <mxPoint x="195" y="130" as="sourcePoint" />
            <Array as="points">
              <mxPoint x="400" y="160" />
              <mxPoint x="300" y="140" />
              <mxPoint x="180" y="120" />
            </Array>
          </mxGeometry>
        </mxCell>
        <mxCell id="aM9ryv3xv72pqoxQDRHE-8" value="" style="html=1;verticalAlign=bottom;endArrow=open;dashed=1;endSize=8;edgeStyle=elbowEdgeStyle;elbow=vertical;curved=0;rounded=0;" parent="1" source="aM9ryv3xv72pqoxQDRHE-6" target="aM9ryv3xv72pqoxQDRHE-2" edge="1">
          <mxGeometry relative="1" as="geometry">
            <mxPoint x="195" y="205" as="targetPoint" />
            <Array as="points">
              <mxPoint x="250" y="180" />
              <mxPoint x="390" y="190" />
              <mxPoint x="190" y="280" />
            </Array>
          </mxGeometry>
        </mxCell>
        <mxCell id="GKugqDZGoT7sEVkk7UVx-1" value="System" style="shape=umlActor;verticalLabelPosition=bottom;verticalAlign=top;html=1;outlineConnect=0;" parent="1" vertex="1">
          <mxGeometry x="10" y="20" width="30" height="60" as="geometry" />
        </mxCell>
        <mxCell id="GKugqDZGoT7sEVkk7UVx-2" value="PopUpClick" style="shape=umlFrame;whiteSpace=wrap;html=1;pointerEvents=0;width=70;height=20;" parent="1" vertex="1">
          <mxGeometry x="-110" width="1500" height="790" as="geometry" />
        </mxCell>
        <mxCell id="GKugqDZGoT7sEVkk7UVx-3" value="pass(&quot;m&quot;)" style="html=1;verticalAlign=bottom;endArrow=block;edgeStyle=elbowEdgeStyle;elbow=vertical;curved=0;rounded=0;" parent="1" edge="1">
          <mxGeometry x="-0.0037" relative="1" as="geometry">
            <mxPoint x="140" y="210" as="sourcePoint" />
            <Array as="points">
              <mxPoint x="405" y="210" />
              <mxPoint x="305" y="190" />
              <mxPoint x="185" y="170" />
            </Array>
            <mxPoint x="530" y="210" as="targetPoint" />
            <mxPoint as="offset" />
          </mxGeometry>
        </mxCell>
        <mxCell id="GKugqDZGoT7sEVkk7UVx-4" value="" style="html=1;verticalAlign=bottom;endArrow=open;dashed=1;endSize=8;edgeStyle=elbowEdgeStyle;elbow=vertical;curved=0;rounded=0;" parent="1" edge="1">
          <mxGeometry relative="1" as="geometry">
            <mxPoint x="140" y="230" as="targetPoint" />
            <Array as="points">
              <mxPoint x="395" y="230" />
              <mxPoint x="195" y="320" />
            </Array>
            <mxPoint x="530" y="230" as="sourcePoint" />
          </mxGeometry>
        </mxCell>
        <mxCell id="GKugqDZGoT7sEVkk7UVx-5" value="m:Mechanic" style="shape=umlLifeline;perimeter=lifelinePerimeter;whiteSpace=wrap;html=1;container=0;dropTarget=0;collapsible=0;recursiveResize=0;outlineConnect=0;portConstraint=eastwest;newEdgeStyle={&quot;edgeStyle&quot;:&quot;elbowEdgeStyle&quot;,&quot;elbow&quot;:&quot;vertical&quot;,&quot;curved&quot;:0,&quot;rounded&quot;:0};" parent="1" vertex="1">
          <mxGeometry x="680" y="40" width="110" height="680" as="geometry" />
        </mxCell>
        <mxCell id="GKugqDZGoT7sEVkk7UVx-7" value="placedown(&quot;m&quot;)" style="html=1;verticalAlign=bottom;endArrow=block;edgeStyle=elbowEdgeStyle;elbow=vertical;curved=0;rounded=0;" parent="1" edge="1">
          <mxGeometry x="-0.0037" relative="1" as="geometry">
            <mxPoint x="140" y="270" as="sourcePoint" />
            <Array as="points">
              <mxPoint x="405" y="270" />
              <mxPoint x="305" y="250.00000000000003" />
              <mxPoint x="185" y="230" />
            </Array>
            <mxPoint x="530" y="270" as="targetPoint" />
            <mxPoint as="offset" />
          </mxGeometry>
        </mxCell>
        <mxCell id="GKugqDZGoT7sEVkk7UVx-8" value="" style="html=1;verticalAlign=bottom;endArrow=open;dashed=1;endSize=8;edgeStyle=elbowEdgeStyle;elbow=vertical;curved=0;rounded=0;" parent="1" edge="1">
          <mxGeometry relative="1" as="geometry">
            <mxPoint x="140" y="284.37" as="targetPoint" />
            <Array as="points">
              <mxPoint x="395" y="284.37" />
              <mxPoint x="195" y="374.37" />
            </Array>
            <mxPoint x="530" y="284.37" as="sourcePoint" />
          </mxGeometry>
        </mxCell>
        <mxCell id="k_89TaVmJJbHdlFSh2L_-1" value="glue(&quot;m&quot;)" style="html=1;verticalAlign=bottom;endArrow=block;edgeStyle=elbowEdgeStyle;elbow=vertical;curved=0;rounded=0;" edge="1" parent="1">
          <mxGeometry x="-0.0037" relative="1" as="geometry">
            <mxPoint x="140" y="320" as="sourcePoint" />
            <Array as="points">
              <mxPoint x="405" y="320" />
              <mxPoint x="305" y="300" />
              <mxPoint x="185" y="279.99999999999994" />
            </Array>
            <mxPoint x="530" y="320" as="targetPoint" />
            <mxPoint as="offset" />
          </mxGeometry>
        </mxCell>
        <mxCell id="k_89TaVmJJbHdlFSh2L_-2" value="lubricate(&quot;s&quot;)" style="html=1;verticalAlign=bottom;endArrow=block;edgeStyle=elbowEdgeStyle;elbow=vertical;curved=0;rounded=0;" edge="1" parent="1">
          <mxGeometry x="-0.0037" relative="1" as="geometry">
            <mxPoint x="140" y="360" as="sourcePoint" />
            <Array as="points">
              <mxPoint x="405" y="360" />
              <mxPoint x="305" y="340" />
              <mxPoint x="185" y="319.99999999999994" />
            </Array>
            <mxPoint x="530" y="360" as="targetPoint" />
            <mxPoint as="offset" />
          </mxGeometry>
        </mxCell>
        <mxCell id="k_89TaVmJJbHdlFSh2L_-3" value="repair(&quot;m&quot;)" style="html=1;verticalAlign=bottom;endArrow=block;edgeStyle=elbowEdgeStyle;elbow=vertical;curved=0;rounded=0;" edge="1" parent="1">
          <mxGeometry x="-0.0037" relative="1" as="geometry">
            <mxPoint x="140" y="420" as="sourcePoint" />
            <Array as="points">
              <mxPoint x="405" y="420" />
              <mxPoint x="305" y="400" />
              <mxPoint x="185" y="379.99999999999994" />
            </Array>
            <mxPoint x="530" y="420" as="targetPoint" />
            <mxPoint as="offset" />
          </mxGeometry>
        </mxCell>
        <mxCell id="k_89TaVmJJbHdlFSh2L_-4" value="s:Saboteur" style="shape=umlLifeline;perimeter=lifelinePerimeter;whiteSpace=wrap;html=1;container=0;dropTarget=0;collapsible=0;recursiveResize=0;outlineConnect=0;portConstraint=eastwest;newEdgeStyle={&quot;edgeStyle&quot;:&quot;elbowEdgeStyle&quot;,&quot;elbow&quot;:&quot;vertical&quot;,&quot;curved&quot;:0,&quot;rounded&quot;:0};" vertex="1" parent="1">
          <mxGeometry x="800" y="40" width="110" height="680" as="geometry" />
        </mxCell>
        <mxCell id="k_89TaVmJJbHdlFSh2L_-5" value="alt" style="shape=umlFrame;whiteSpace=wrap;html=1;pointerEvents=0;width=70;height=20;" vertex="1" parent="1">
          <mxGeometry x="-90" y="130" width="1440" height="610" as="geometry" />
        </mxCell>
        <mxCell id="k_89TaVmJJbHdlFSh2L_-6" value="" style="html=1;verticalAlign=bottom;endArrow=open;dashed=1;endSize=8;edgeStyle=elbowEdgeStyle;elbow=vertical;curved=0;rounded=0;" edge="1" parent="1">
          <mxGeometry relative="1" as="geometry">
            <mxPoint x="140" y="330" as="targetPoint" />
            <Array as="points">
              <mxPoint x="395" y="330" />
              <mxPoint x="195" y="420" />
            </Array>
            <mxPoint x="530" y="330" as="sourcePoint" />
          </mxGeometry>
        </mxCell>
        <mxCell id="k_89TaVmJJbHdlFSh2L_-7" value="" style="html=1;verticalAlign=bottom;endArrow=open;dashed=1;endSize=8;edgeStyle=elbowEdgeStyle;elbow=vertical;curved=0;rounded=0;" edge="1" parent="1">
          <mxGeometry relative="1" as="geometry">
            <mxPoint x="140" y="380" as="targetPoint" />
            <Array as="points">
              <mxPoint x="395" y="380" />
              <mxPoint x="195" y="470" />
            </Array>
            <mxPoint x="530" y="380" as="sourcePoint" />
          </mxGeometry>
        </mxCell>
        <mxCell id="k_89TaVmJJbHdlFSh2L_-8" value="" style="html=1;verticalAlign=bottom;endArrow=open;dashed=1;endSize=8;edgeStyle=elbowEdgeStyle;elbow=vertical;curved=0;rounded=0;" edge="1" parent="1">
          <mxGeometry relative="1" as="geometry">
            <mxPoint x="140" y="450" as="targetPoint" />
            <Array as="points">
              <mxPoint x="395" y="450" />
              <mxPoint x="195" y="540" />
            </Array>
            <mxPoint x="530" y="450" as="sourcePoint" />
          </mxGeometry>
        </mxCell>
        <mxCell id="k_89TaVmJJbHdlFSh2L_-10" value="move(&quot;m&quot;,&quot;st&quot;)" style="html=1;verticalAlign=bottom;endArrow=block;edgeStyle=elbowEdgeStyle;elbow=vertical;curved=0;rounded=0;" edge="1" parent="1">
          <mxGeometry x="-0.0037" relative="1" as="geometry">
            <mxPoint x="140" y="510" as="sourcePoint" />
            <Array as="points">
              <mxPoint x="405" y="510" />
              <mxPoint x="305" y="490" />
              <mxPoint x="185" y="469.99999999999994" />
            </Array>
            <mxPoint x="530" y="510" as="targetPoint" />
            <mxPoint as="offset" />
          </mxGeometry>
        </mxCell>
        <mxCell id="k_89TaVmJJbHdlFSh2L_-11" value="redirect(&quot;m&quot;,&quot;p1&quot;,&quot;p2&quot;)" style="html=1;verticalAlign=bottom;endArrow=block;edgeStyle=elbowEdgeStyle;elbow=vertical;curved=0;rounded=0;" edge="1" parent="1">
          <mxGeometry x="0.0256" relative="1" as="geometry">
            <mxPoint x="140" y="590" as="sourcePoint" />
            <Array as="points">
              <mxPoint x="405" y="590" />
              <mxPoint x="305" y="570" />
              <mxPoint x="185" y="550" />
            </Array>
            <mxPoint x="530" y="590" as="targetPoint" />
            <mxPoint as="offset" />
          </mxGeometry>
        </mxCell>
        <mxCell id="k_89TaVmJJbHdlFSh2L_-12" value="pickup(&quot;m&quot;,&quot;p1&quot;)" style="html=1;verticalAlign=bottom;endArrow=block;edgeStyle=elbowEdgeStyle;elbow=vertical;curved=0;rounded=0;" edge="1" parent="1">
          <mxGeometry x="-0.0037" relative="1" as="geometry">
            <mxPoint x="140" y="660" as="sourcePoint" />
            <Array as="points">
              <mxPoint x="405" y="660" />
              <mxPoint x="305" y="640" />
              <mxPoint x="185" y="620" />
            </Array>
            <mxPoint x="530" y="660" as="targetPoint" />
            <mxPoint as="offset" />
          </mxGeometry>
        </mxCell>
        <mxCell id="k_89TaVmJJbHdlFSh2L_-14" value="" style="html=1;verticalAlign=bottom;endArrow=open;dashed=1;endSize=8;edgeStyle=elbowEdgeStyle;elbow=vertical;curved=0;rounded=0;" edge="1" parent="1">
          <mxGeometry relative="1" as="geometry">
            <mxPoint x="140" y="549" as="targetPoint" />
            <Array as="points">
              <mxPoint x="395" y="549" />
              <mxPoint x="195" y="639" />
            </Array>
            <mxPoint x="530" y="549" as="sourcePoint" />
          </mxGeometry>
        </mxCell>
        <mxCell id="k_89TaVmJJbHdlFSh2L_-15" value="" style="html=1;verticalAlign=bottom;endArrow=open;dashed=1;endSize=8;edgeStyle=elbowEdgeStyle;elbow=vertical;curved=0;rounded=0;" edge="1" parent="1">
          <mxGeometry relative="1" as="geometry">
            <mxPoint x="140" y="620" as="targetPoint" />
            <Array as="points">
              <mxPoint x="395" y="620" />
              <mxPoint x="195" y="710" />
            </Array>
            <mxPoint x="530" y="620" as="sourcePoint" />
          </mxGeometry>
        </mxCell>
        <mxCell id="k_89TaVmJJbHdlFSh2L_-16" value="" style="html=1;verticalAlign=bottom;endArrow=open;dashed=1;endSize=8;edgeStyle=elbowEdgeStyle;elbow=vertical;curved=0;rounded=0;" edge="1" parent="1">
          <mxGeometry relative="1" as="geometry">
            <mxPoint x="140" y="680" as="targetPoint" />
            <Array as="points">
              <mxPoint x="395" y="680" />
              <mxPoint x="195" y="770" />
            </Array>
            <mxPoint x="530" y="680" as="sourcePoint" />
          </mxGeometry>
        </mxCell>
        <mxCell id="k_89TaVmJJbHdlFSh2L_-17" value="" style="html=1;verticalAlign=bottom;endArrow=open;dashed=1;endSize=8;edgeStyle=elbowEdgeStyle;elbow=vertical;curved=0;rounded=0;" edge="1" parent="1">
          <mxGeometry relative="1" as="geometry">
            <mxPoint y="750" as="targetPoint" />
            <Array as="points">
              <mxPoint x="70" y="750" />
            </Array>
            <mxPoint x="140" y="750" as="sourcePoint" />
          </mxGeometry>
        </mxCell>
        <mxCell id="k_89TaVmJJbHdlFSh2L_-18" value="st:Steppable" style="shape=umlLifeline;perimeter=lifelinePerimeter;whiteSpace=wrap;html=1;container=0;dropTarget=0;collapsible=0;recursiveResize=0;outlineConnect=0;portConstraint=eastwest;newEdgeStyle={&quot;edgeStyle&quot;:&quot;elbowEdgeStyle&quot;,&quot;elbow&quot;:&quot;vertical&quot;,&quot;curved&quot;:0,&quot;rounded&quot;:0};" vertex="1" parent="1">
          <mxGeometry x="930" y="40" width="110" height="680" as="geometry" />
        </mxCell>
        <mxCell id="k_89TaVmJJbHdlFSh2L_-19" value="p1:Pipe" style="shape=umlLifeline;perimeter=lifelinePerimeter;whiteSpace=wrap;html=1;container=0;dropTarget=0;collapsible=0;recursiveResize=0;outlineConnect=0;portConstraint=eastwest;newEdgeStyle={&quot;edgeStyle&quot;:&quot;elbowEdgeStyle&quot;,&quot;elbow&quot;:&quot;vertical&quot;,&quot;curved&quot;:0,&quot;rounded&quot;:0};" vertex="1" parent="1">
          <mxGeometry x="1070" y="40" width="110" height="680" as="geometry" />
        </mxCell>
        <mxCell id="k_89TaVmJJbHdlFSh2L_-20" value="p2:Pipe" style="shape=umlLifeline;perimeter=lifelinePerimeter;whiteSpace=wrap;html=1;container=0;dropTarget=0;collapsible=0;recursiveResize=0;outlineConnect=0;portConstraint=eastwest;newEdgeStyle={&quot;edgeStyle&quot;:&quot;elbowEdgeStyle&quot;,&quot;elbow&quot;:&quot;vertical&quot;,&quot;curved&quot;:0,&quot;rounded&quot;:0};" vertex="1" parent="1">
          <mxGeometry x="1210" y="40" width="110" height="680" as="geometry" />
        </mxCell>
        <mxCell id="k_89TaVmJJbHdlFSh2L_-21" value="" style="endArrow=none;dashed=1;html=1;rounded=0;exitX=-0.002;exitY=0.107;exitDx=0;exitDy=0;exitPerimeter=0;entryX=1.001;entryY=0.116;entryDx=0;entryDy=0;entryPerimeter=0;" edge="1" parent="1" source="k_89TaVmJJbHdlFSh2L_-5" target="k_89TaVmJJbHdlFSh2L_-5">
          <mxGeometry width="50" height="50" relative="1" as="geometry">
            <mxPoint x="420" y="390" as="sourcePoint" />
            <mxPoint x="470" y="340" as="targetPoint" />
          </mxGeometry>
        </mxCell>
        <mxCell id="k_89TaVmJJbHdlFSh2L_-22" value="" style="endArrow=none;dashed=1;html=1;rounded=0;exitX=-0.002;exitY=0.107;exitDx=0;exitDy=0;exitPerimeter=0;entryX=1.001;entryY=0.116;entryDx=0;entryDy=0;entryPerimeter=0;" edge="1" parent="1">
          <mxGeometry width="50" height="50" relative="1" as="geometry">
            <mxPoint x="-90" y="240" as="sourcePoint" />
            <mxPoint x="1354" y="246" as="targetPoint" />
          </mxGeometry>
        </mxCell>
        <mxCell id="k_89TaVmJJbHdlFSh2L_-23" value="" style="endArrow=none;dashed=1;html=1;rounded=0;exitX=-0.002;exitY=0.107;exitDx=0;exitDy=0;exitPerimeter=0;" edge="1" parent="1">
          <mxGeometry width="50" height="50" relative="1" as="geometry">
            <mxPoint x="-82" y="300" as="sourcePoint" />
            <mxPoint x="1350" y="300" as="targetPoint" />
          </mxGeometry>
        </mxCell>
        <mxCell id="k_89TaVmJJbHdlFSh2L_-24" value="" style="endArrow=none;dashed=1;html=1;rounded=0;exitX=-0.001;exitY=0.349;exitDx=0;exitDy=0;exitPerimeter=0;" edge="1" parent="1" source="k_89TaVmJJbHdlFSh2L_-5">
          <mxGeometry width="50" height="50" relative="1" as="geometry">
            <mxPoint x="-60" y="340" as="sourcePoint" />
            <mxPoint x="1372" y="340" as="targetPoint" />
          </mxGeometry>
        </mxCell>
        <mxCell id="k_89TaVmJJbHdlFSh2L_-25" value="" style="endArrow=none;dashed=1;html=1;rounded=0;exitX=-0.001;exitY=0.349;exitDx=0;exitDy=0;exitPerimeter=0;" edge="1" parent="1">
          <mxGeometry width="50" height="50" relative="1" as="geometry">
            <mxPoint x="-91.5" y="391.5" as="sourcePoint" />
            <mxPoint x="1350" y="389" as="targetPoint" />
          </mxGeometry>
        </mxCell>
        <mxCell id="k_89TaVmJJbHdlFSh2L_-26" value="" style="endArrow=none;dashed=1;html=1;rounded=0;exitX=-0.001;exitY=0.349;exitDx=0;exitDy=0;exitPerimeter=0;" edge="1" parent="1">
          <mxGeometry width="50" height="50" relative="1" as="geometry">
            <mxPoint x="-91.5" y="472.5" as="sourcePoint" />
            <mxPoint x="1350" y="470" as="targetPoint" />
          </mxGeometry>
        </mxCell>
        <mxCell id="k_89TaVmJJbHdlFSh2L_-27" value="" style="endArrow=none;dashed=1;html=1;rounded=0;exitX=-0.001;exitY=0.349;exitDx=0;exitDy=0;exitPerimeter=0;" edge="1" parent="1">
          <mxGeometry width="50" height="50" relative="1" as="geometry">
            <mxPoint x="-90" y="562.5" as="sourcePoint" />
            <mxPoint x="1351.5" y="560" as="targetPoint" />
          </mxGeometry>
        </mxCell>
        <mxCell id="k_89TaVmJJbHdlFSh2L_-28" value="" style="endArrow=none;dashed=1;html=1;rounded=0;exitX=0.002;exitY=0.829;exitDx=0;exitDy=0;exitPerimeter=0;" edge="1" parent="1" source="k_89TaVmJJbHdlFSh2L_-5">
          <mxGeometry width="50" height="50" relative="1" as="geometry">
            <mxPoint x="-70" y="632.5" as="sourcePoint" />
            <mxPoint x="1371.5" y="630" as="targetPoint" />
          </mxGeometry>
        </mxCell>
        <mxCell id="k_89TaVmJJbHdlFSh2L_-29" value="[actiontype == pierce]" style="text;html=1;strokeColor=none;fillColor=none;align=center;verticalAlign=middle;whiteSpace=wrap;rounded=0;" vertex="1" parent="1">
          <mxGeometry x="-60" y="150" width="130" height="30" as="geometry" />
        </mxCell>
        <mxCell id="k_89TaVmJJbHdlFSh2L_-30" value="[actiontype == pass]" style="text;html=1;strokeColor=none;fillColor=none;align=center;verticalAlign=middle;whiteSpace=wrap;rounded=0;" vertex="1" parent="1">
          <mxGeometry x="-60" y="200" width="130" height="30" as="geometry" />
        </mxCell>
        <mxCell id="k_89TaVmJJbHdlFSh2L_-31" value="[actiontype == placedown]" style="text;html=1;strokeColor=none;fillColor=none;align=center;verticalAlign=middle;whiteSpace=wrap;rounded=0;" vertex="1" parent="1">
          <mxGeometry x="-50" y="260" width="150" height="30" as="geometry" />
        </mxCell>
        <mxCell id="k_89TaVmJJbHdlFSh2L_-32" value="[actiontype == glue]" style="text;html=1;strokeColor=none;fillColor=none;align=center;verticalAlign=middle;whiteSpace=wrap;rounded=0;" vertex="1" parent="1">
          <mxGeometry x="-50" y="310" width="130" height="30" as="geometry" />
        </mxCell>
        <mxCell id="k_89TaVmJJbHdlFSh2L_-33" value="[actiontype == lubricate]" style="text;html=1;strokeColor=none;fillColor=none;align=center;verticalAlign=middle;whiteSpace=wrap;rounded=0;" vertex="1" parent="1">
          <mxGeometry x="-50" y="350" width="130" height="30" as="geometry" />
        </mxCell>
        <mxCell id="k_89TaVmJJbHdlFSh2L_-34" value="[actiontype == repair]" style="text;html=1;strokeColor=none;fillColor=none;align=center;verticalAlign=middle;whiteSpace=wrap;rounded=0;" vertex="1" parent="1">
          <mxGeometry x="-60" y="400" width="130" height="30" as="geometry" />
        </mxCell>
        <mxCell id="k_89TaVmJJbHdlFSh2L_-35" value="[actiontype == move]" style="text;html=1;strokeColor=none;fillColor=none;align=center;verticalAlign=middle;whiteSpace=wrap;rounded=0;" vertex="1" parent="1">
          <mxGeometry x="-40" y="510" width="130" height="30" as="geometry" />
        </mxCell>
        <mxCell id="k_89TaVmJJbHdlFSh2L_-36" value="[actiontype == redirect]" style="text;html=1;strokeColor=none;fillColor=none;align=center;verticalAlign=middle;whiteSpace=wrap;rounded=0;" vertex="1" parent="1">
          <mxGeometry x="-40" y="580" width="130" height="30" as="geometry" />
        </mxCell>
        <mxCell id="k_89TaVmJJbHdlFSh2L_-37" value="[actiontype == pickup]" style="text;html=1;strokeColor=none;fillColor=none;align=center;verticalAlign=middle;whiteSpace=wrap;rounded=0;" vertex="1" parent="1">
          <mxGeometry x="-40" y="660" width="130" height="30" as="geometry" />
        </mxCell>
      </root>
    </mxGraphModel>
  </diagram>
</mxfile>
